<svg id="svg" xmlns="http://www.w3.org/2000/svg" xmlns:xlink="http://www.w3.org/1999/xlink" width="400" height="406.99708454810497" viewBox="0, 0, 400,406.99708454810497"><g id="svgg"><path id="path0" d="M176.525 9.829 C 174.517 10.710,172.542 11.969,172.136 12.627 C 171.652 13.411,170.100 13.450,167.630 12.742 C 158.683 10.176,146.967 12.729,138.662 19.056 C 135.002 21.844,131.854 23.153,127.699 23.618 C 122.861 24.158,121.253 24.982,118.246 28.461 C 115.272 31.901,113.827 32.653,110.193 32.653 C 106.582 32.653,104.990 33.469,101.570 37.074 C 98.654 40.149,95.307 42.129,90.584 43.575 C 82.349 46.097,76.797 51.282,71.360 61.531 C 68.918 66.134,66.766 68.805,65.497 68.805 C 59.561 68.805,52.510 80.290,52.490 89.992 C 52.479 94.967,52.121 95.658,48.335 97.997 C 42.433 101.645,42.100 100.085,47.200 92.681 C 52.041 85.652,51.926 83.354,46.920 87.071 C 41.958 90.754,37.346 99.122,36.544 105.897 C 35.691 113.100,35.936 113.166,43.339 107.732 C 46.502 105.411,49.411 103.833,49.805 104.226 C 51.253 105.674,45.840 109.972,37.711 113.830 C 28.069 118.406,23.620 124.803,24.843 132.337 C 25.330 135.337,24.919 136.741,23.073 138.384 C 19.548 141.524,17.496 147.223,18.241 151.810 C 18.744 154.912,18.204 156.835,15.860 160.289 C 12.588 165.110,11.976 170.614,14.174 175.439 C 15.331 177.978,14.972 179.583,11.627 186.841 C 6.073 198.890,6.055 209.779,11.570 220.982 C 15.206 228.367,15.331 229.043,13.969 233.909 C 12.332 239.755,13.115 245.492,15.982 248.661 C 17.268 250.081,17.976 252.966,18.038 257.042 C 18.110 261.713,18.893 264.381,21.190 267.780 C 22.871 270.268,24.592 274.771,25.014 277.787 C 25.775 283.219,29.270 288.191,34.305 291.006 C 35.843 291.865,36.757 294.318,37.463 299.480 C 39.145 311.774,47.202 323.695,57.388 328.959 C 66.532 333.685,66.561 330.716,57.434 324.294 C 49.925 319.010,43.954 310.948,42.006 303.464 C 41.022 299.681,40.629 279.883,41.538 279.883 C 43.655 279.883,50.146 283.910,50.146 285.224 C 50.146 288.737,47.765 291.687,45.508 290.971 C 44.318 290.593,42.946 290.930,42.457 291.720 C 41.962 292.522,42.185 293.362,42.963 293.621 C 45.926 294.609,47.813 297.709,47.813 301.587 C 47.813 307.646,51.550 313.918,56.976 316.967 C 63.452 320.607,66.472 324.756,66.472 330.012 C 66.472 338.674,70.861 345.190,76.695 345.190 C 78.078 345.190,79.740 347.051,81.391 350.449 C 84.315 356.468,90.085 360.638,94.650 360.031 C 97.288 359.680,97.858 360.135,98.442 363.055 C 99.978 370.735,109.889 376.415,119.745 375.264 C 123.501 374.826,124.508 375.279,127.606 378.808 C 130.785 382.429,136.842 386.006,139.795 386.006 C 140.397 386.006,141.220 383.251,141.624 379.883 C 142.315 374.137,144.558 363.793,145.322 362.833 C 145.511 362.595,148.707 365.129,152.425 368.464 C 156.142 371.799,161.414 375.848,164.140 377.462 C 169.694 380.751,170.002 381.381,166.978 383.269 C 165.176 384.395,163.737 383.583,157.357 377.842 C 148.650 370.009,147.058 370.673,146.980 382.175 C 146.928 389.893,154.889 393.901,158.716 388.084 C 159.100 387.500,162.808 388.888,166.956 391.168 C 188.534 403.029,209.252 403.724,230.575 393.302 C 233.922 391.667,236.347 389.820,235.963 389.200 C 235.523 388.487,238.224 388.348,243.289 388.821 C 254.019 389.824,254.771 389.197,253.815 380.047 C 252.771 370.062,251.935 369.746,245.489 376.902 C 239.872 383.137,241.224 387.360,247.127 382.018 C 249.812 379.588,250.729 379.693,250.729 382.429 C 250.729 385.388,247.242 386.393,241.748 385.017 C 239.312 384.407,235.844 383.575,234.043 383.168 C 230.826 382.442,230.929 382.299,239.874 375.048 C 244.882 370.989,249.979 366.546,251.201 365.175 C 255.139 360.757,258.539 366.121,259.703 378.589 C 260.118 383.039,260.937 386.006,261.748 386.006 C 264.275 386.006,274.295 378.915,274.869 376.720 C 275.365 374.826,276.257 374.620,281.576 375.169 C 289.308 375.967,295.279 374.038,299.087 369.512 C 305.029 362.450,302.524 360.714,294.991 366.675 C 285.139 374.471,269.388 371.531,269.388 361.896 C 269.388 357.816,271.389 358.627,274.012 363.769 C 276.896 369.422,278.329 370.407,279.285 367.394 C 280.971 362.084,271.060 351.522,266.809 354.098 C 263.124 356.331,264.928 365.340,270.192 370.991 L 273.043 374.052 269.912 376.514 C 265.756 379.783,265.370 379.385,261.662 367.999 L 258.476 358.217 264.541 351.581 C 267.993 347.803,272.612 340.800,275.264 335.322 L 279.922 325.698 294.771 324.967 C 302.939 324.566,312.114 323.898,315.160 323.483 C 320.425 322.766,320.701 322.866,320.718 325.504 C 320.791 336.906,340.864 334.595,353.329 321.751 C 360.450 314.413,365.799 301.063,363.807 295.600 C 362.827 292.913,361.676 295.046,359.286 303.977 C 356.589 314.050,343.610 327.697,336.726 327.697 C 329.969 327.697,335.942 306.288,344.702 299.110 L 350.193 294.610 349.629 300.481 C 348.980 307.234,346.428 311.186,340.233 315.035 C 335.218 318.150,334.701 319.534,338.549 319.534 C 344.549 319.534,353.331 309.870,353.370 303.225 C 353.401 297.894,355.992 294.973,363.265 292.069 C 372.040 288.565,375.043 285.185,376.080 277.647 C 376.525 274.411,377.963 270.399,379.276 268.730 C 380.743 266.865,381.991 262.926,382.517 258.504 C 382.987 254.548,384.581 248.585,386.060 245.252 C 388.676 239.355,388.694 239.071,386.739 234.736 L 384.730 230.280 388.866 222.344 C 395.486 209.644,394.373 190.525,386.508 181.835 C 385.015 180.185,385.037 179.405,386.687 175.456 C 388.929 170.089,388.248 164.128,384.872 159.561 C 383.175 157.266,382.507 154.563,382.507 149.991 C 382.507 144.896,381.923 142.925,379.592 140.154 C 377.602 137.790,376.668 135.261,376.651 132.193 C 376.619 126.625,373.005 118.398,369.849 116.709 C 366.025 114.662,365.600 117.404,368.985 122.289 C 371.833 126.399,373.318 135.332,371.137 135.240 C 366.430 135.042,364.434 129.966,364.808 119.148 C 365.464 100.221,360.673 89.580,348.712 83.395 C 346.819 82.415,345.515 80.962,345.815 80.166 C 346.840 77.443,341.752 71.136,336.454 68.563 C 332.642 66.710,331.195 65.318,331.195 63.499 C 331.195 56.450,316.815 43.964,308.527 43.816 C 304.296 43.741,303.462 43.221,300.722 38.953 C 297.501 33.938,295.499 32.653,290.907 32.653 C 289.379 32.653,286.404 31.156,284.297 29.326 C 279.062 24.778,276.016 23.324,271.728 23.324 C 269.416 23.324,266.477 22.031,263.685 19.788 C 256.902 14.337,248.577 11.662,238.399 11.662 C 233.550 11.662,227.077 10.839,223.993 9.830 C 219.012 8.201,217.938 8.190,214.263 9.725 C 210.603 11.254,209.845 11.251,207.624 9.695 C 205.809 8.424,203.604 8.144,199.643 8.680 C 191.169 9.827,187.470 9.909,183.673 9.034 C 181.535 8.540,178.755 8.850,176.525 9.829 M205.781 13.231 C 207.766 14.682,207.638 14.857,204.088 15.567 C 201.828 16.019,199.604 15.799,198.680 15.032 C 194.993 11.973,201.725 10.264,205.781 13.231 M184.774 13.547 C 186.225 14.104,186.346 14.631,185.310 15.880 C 183.806 17.691,179.828 17.976,177.411 16.445 C 174.387 14.529,180.778 12.014,184.774 13.547 M224.558 14.497 C 226.758 16.119,226.740 16.196,223.913 17.252 C 219.227 19.002,211.512 15.425,216.035 13.600 C 218.828 12.473,222.310 12.839,224.558 14.497 M164.282 16.210 C 165.297 16.852,162.637 17.387,157.014 17.671 C 148.631 18.095,142.682 20.622,144.885 22.825 C 145.574 23.514,153.053 22.177,158.017 20.478 C 159.300 20.038,158.257 21.417,155.700 23.542 C 138.154 38.118,131.445 46.165,134.794 48.614 C 136.724 50.025,137.816 49.317,145.729 41.519 L 154.519 32.856 160.634 36.362 C 167.710 40.418,173.761 45.749,173.761 47.927 C 173.761 48.758,172.055 47.796,169.971 45.790 C 165.097 41.101,159.767 39.561,159.767 42.842 C 159.767 46.304,163.361 48.837,170.083 50.112 C 179.606 51.918,184.743 56.189,185.635 63.043 C 186.215 67.493,183.945 67.315,180.896 62.670 C 177.074 56.846,160.933 50.731,160.933 55.107 C 160.933 59.852,169.655 66.472,175.906 66.472 C 182.650 66.472,187.419 74.582,185.458 82.712 C 184.217 87.855,181.980 86.637,168.931 73.719 L 156.007 60.923 156.830 53.827 C 157.283 49.925,157.277 44.504,156.818 41.782 L 155.981 36.833 153.105 40.178 C 150.145 43.619,150.066 45.062,152.258 55.718 L 153.044 59.541 143.869 55.394 C 126.510 47.546,125.145 45.606,130.290 36.100 C 134.374 28.554,133.321 26.855,127.432 31.487 C 124.433 33.846,118.950 34.687,118.950 32.787 C 118.950 28.864,128.415 26.589,137.202 28.400 C 144.177 29.837,149.271 29.220,149.271 26.938 C 149.271 25.704,147.558 25.105,140.525 23.882 L 135.860 23.071 142.274 20.158 C 153.221 15.186,160.582 13.865,164.282 16.210 M247.813 16.327 C 248.234 17.007,247.048 17.493,244.967 17.493 C 243.005 17.493,241.399 16.968,241.399 16.327 C 241.399 15.685,242.680 15.160,244.246 15.160 C 245.812 15.160,247.417 15.685,247.813 16.327 M193.170 18.756 C 193.261 19.664,189.774 23.725,185.420 27.778 L 177.503 35.149 168.441 31.931 L 159.378 28.714 164.529 24.226 C 169.142 20.205,170.105 19.828,173.761 20.612 C 180.921 22.145,186.985 21.422,188.913 18.805 C 190.841 16.190,192.908 16.165,193.170 18.756 M215.041 20.339 C 220.480 22.498,220.990 22.512,226.115 20.645 L 231.487 18.688 236.477 22.172 C 243.039 26.753,248.438 27.090,245.588 22.741 C 243.339 19.308,243.230 19.340,249.563 21.574 C 256.753 24.111,258.645 23.939,255.977 20.991 C 253.320 18.056,255.107 18.011,258.601 20.925 C 262.036 23.791,261.932 24.160,257.434 25.078 C 254.214 25.735,228.862 32.877,224.090 34.472 C 222.206 35.102,206.194 19.958,207.135 18.436 C 207.497 17.849,208.142 17.528,208.567 17.723 C 208.992 17.917,211.906 19.094,215.041 20.339 M207.697 30.642 C 212.653 38.310,213.205 41.259,210.429 45.222 C 207.811 48.961,206.880 48.425,207.335 43.440 C 207.768 38.701,205.314 34.086,203.092 35.459 C 201.282 36.578,201.464 41.902,203.435 45.462 C 206.648 51.265,200.367 55.311,196.568 49.886 C 194.013 46.239,194.301 43.187,197.668 38.233 C 199.359 35.745,200.569 32.325,200.549 30.091 L 200.515 26.239 197.228 29.848 C 195.282 31.985,193.626 35.434,193.167 38.303 C 192.298 43.741,190.508 44.646,189.394 40.211 C 188.355 36.068,190.769 31.030,196.102 26.212 C 201.475 21.357,201.768 21.469,207.697 30.642 M271.694 38.132 C 275.516 48.192,272.488 48.698,262.999 39.587 C 254.071 31.013,254.196 31.424,259.773 29.026 C 265.258 26.668,268.188 28.906,271.694 38.132 M279.926 31.223 C 281.203 32.847,282.009 34.415,281.716 34.708 C 280.670 35.754,272.297 30.869,271.955 29.014 C 271.416 26.085,277.130 27.668,279.926 31.223 M296.793 40.904 C 296.793 43.582,294.217 43.284,290.526 40.178 C 284.825 35.381,285.714 32.894,291.837 36.509 C 294.563 38.119,296.793 40.097,296.793 40.904 M257.606 45.972 C 265.326 57.889,266.140 61.385,262.822 68.377 C 259.571 75.227,256.038 76.095,256.980 69.812 C 259.435 53.449,259.476 54.049,255.638 50.211 C 247.386 41.958,246.172 47.145,252.925 61.808 C 256.492 69.551,254.473 78.380,248.393 81.635 C 245.588 83.135,245.550 82.620,247.886 74.755 C 249.956 67.785,249.325 63.009,245.927 59.934 C 241.450 55.882,239.548 66.009,243.306 73.890 C 246.692 80.991,245.281 82.887,227.999 94.454 C 210.387 106.241,210.381 106.243,209.356 101.579 C 208.024 95.512,214.251 85.683,217.971 87.982 C 219.197 88.740,230.904 84.021,230.904 82.768 C 230.904 78.788,220.799 79.950,215.427 84.548 C 209.788 89.375,208.746 89.573,208.746 85.818 C 208.746 82.457,214.764 76.970,218.457 76.964 C 224.585 76.953,234.461 66.064,231.253 62.856 C 229.333 60.936,218.781 67.252,215.174 72.479 C 212.473 76.395,211.597 77.051,211.279 75.400 C 210.808 72.952,220.861 57.219,223.041 56.992 C 223.838 56.910,226.862 56.949,229.761 57.080 C 233.641 57.255,235.872 56.657,238.216 54.813 C 245.205 49.316,239.144 46.732,230.334 51.454 C 226.132 53.706,225.867 53.732,227.378 51.745 C 233.382 43.850,234.565 43.149,241.909 43.131 C 252.615 43.104,256.039 38.631,245.481 38.465 C 242.152 38.412,242.092 38.327,244.246 36.698 C 248.528 33.459,250.294 34.684,257.606 45.972 M114.755 37.134 C 115.374 38.135,106.371 43.149,103.954 43.149 C 101.697 43.149,102.476 41.102,105.697 38.569 C 108.818 36.113,113.651 35.348,114.755 37.134 M120.055 38.993 C 123.275 42.872,116.072 47.788,107.140 47.807 C 104.011 47.814,100.861 50.326,102.245 51.711 C 102.667 52.133,106.205 52.476,110.107 52.472 C 120.807 52.464,142.361 62.653,144.366 68.667 C 144.664 69.562,142.939 68.922,140.398 67.195 C 133.814 62.722,128.727 63.349,133.867 68.001 C 135.016 69.040,138.722 70.484,142.104 71.209 C 146.478 72.148,149.408 73.684,152.260 76.536 C 159.998 84.274,157.069 84.353,142.008 76.814 C 131.405 71.507,131.778 71.574,131.778 74.959 C 131.778 81.976,138.730 86.272,149.778 86.084 C 154.255 86.007,158.123 86.519,158.894 87.290 C 159.902 88.299,158.921 88.630,154.926 88.630 C 149.173 88.630,142.274 90.577,142.274 92.201 C 142.274 95.899,151.652 96.582,156.363 93.227 C 160.629 90.190,161.376 90.633,170.164 101.425 C 179.732 113.175,179.474 113.988,168.545 106.527 C 164.490 103.758,157.905 104.569,153.664 108.358 C 148.574 112.906,149.352 113.294,163.984 113.514 L 176.547 113.703 178.592 117.205 C 181.728 122.577,184.523 129.749,183.150 128.900 C 182.476 128.483,181.924 127.378,181.924 126.445 C 181.924 124.478,175.305 120.127,172.303 120.121 C 168.078 120.112,173.410 128.625,179.611 131.788 C 186.866 135.490,187.212 144.606,180.097 144.606 C 175.376 144.606,171.456 140.026,170.406 133.283 C 169.226 125.708,164.263 120.117,158.719 120.117 C 156.712 120.117,159.832 127.359,164.147 132.717 C 169.634 139.529,168.757 139.581,158.572 133.047 C 146.391 125.234,145.424 123.947,146.058 116.397 C 146.631 109.560,145.006 99.125,143.367 99.125 C 139.095 99.125,136.767 111.141,140.009 116.458 C 142.712 120.891,142.390 122.051,138.966 120.219 C 134.225 117.681,132.945 115.396,132.945 109.471 C 132.945 102.063,130.708 93.071,129.004 93.627 C 125.895 94.643,125.414 102.482,128.119 108.049 C 130.731 113.427,130.770 115.241,128.238 113.677 C 120.608 108.961,119.656 91.922,126.563 83.713 C 129.616 80.086,130.456 74.636,127.962 74.636 C 126.587 74.636,124.548 77.952,121.509 85.131 C 120.830 86.735,120.239 87.357,120.196 86.515 C 120.152 85.673,122.216 79.864,124.781 73.608 C 127.347 67.351,129.446 61.385,129.446 60.349 C 129.446 57.844,124.748 56.360,123.492 58.468 C 114.391 73.747,111.922 76.433,112.862 70.032 C 113.525 65.515,107.769 55.030,105.740 57.059 C 103.143 59.656,104.285 66.811,108.140 72.093 C 113.179 78.995,111.096 83.965,103.165 83.965 C 95.902 83.965,95.276 81.660,98.069 65.206 C 101.014 47.854,101.345 47.143,106.965 46.105 C 111.597 45.250,116.618 41.483,116.618 38.864 C 116.618 36.831,118.314 36.895,120.055 38.993 M286.174 41.440 C 288.759 44.383,291.298 45.876,295.044 46.656 C 299.628 47.611,299.259 47.673,292.128 47.146 C 282.898 46.464,279.068 44.056,280.423 39.787 C 281.469 36.491,281.945 36.628,286.174 41.440 M314.727 49.359 C 320.886 52.418,330.488 64.935,328.547 67.375 C 327.104 69.188,327.034 69.125,333.635 72.005 C 336.581 73.290,340.159 75.982,341.586 77.987 L 344.182 81.633 339.771 81.633 C 334.299 81.633,336.027 84.045,343.443 86.759 C 346.007 87.698,347.449 88.502,346.647 88.548 C 345.584 88.608,345.190 91.783,345.190 100.292 C 345.190 114.027,344.226 115.631,334.759 117.661 C 323.668 120.040,322.983 119.577,329.180 113.888 C 334.372 109.121,337.337 100.292,333.746 100.292 C 331.741 100.292,325.931 107.597,324.206 112.287 C 322.663 116.484,321.676 117.431,317.447 118.776 C 308.931 121.484,307.645 119.602,314.190 114.007 C 321.718 107.572,325.464 99.125,320.789 99.125 C 317.230 99.125,311.536 104.715,310.053 109.665 C 307.539 118.056,300.144 122.149,295.009 117.991 L 292.207 115.722 295.547 110.902 C 301.183 102.769,307.303 97.959,312.015 97.959 C 317.360 97.959,324.075 94.671,321.744 93.195 C 319.113 91.529,312.105 91.977,309.222 93.997 C 306.046 96.221,305.000 95.543,305.972 91.891 C 307.385 86.583,308.393 85.907,312.090 87.787 C 316.960 90.264,342.662 98.543,343.349 97.856 C 344.710 96.495,342.400 92.538,338.975 90.361 C 335.682 88.268,335.211 87.273,334.676 81.269 C 333.989 73.567,330.887 69.760,330.247 75.833 C 329.807 80.005,327.697 80.498,327.697 76.429 C 327.697 66.741,319.444 55.156,309.986 51.566 C 304.858 49.619,304.373 49.187,304.373 46.569 C 304.373 45.025,307.932 45.984,314.727 49.359 M96.775 47.522 C 96.737 49.403,94.924 50.848,92.409 51.005 C 87.642 51.301,76.968 60.847,76.968 64.813 C 76.968 65.725,76.181 66.472,75.219 66.472 C 72.981 66.472,73.013 66.098,75.700 60.886 C 78.334 55.776,84.530 49.578,88.630 47.952 C 92.145 46.557,96.800 46.311,96.775 47.522 M300.875 53.491 L 303.790 54.227 302.624 65.931 L 301.458 77.635 298.542 76.152 C 296.939 75.337,294.315 74.654,292.711 74.635 C 287.752 74.575,286.437 72.935,289.873 71.096 C 294.595 68.569,299.083 55.977,295.262 55.977 C 293.354 55.977,288.174 62.523,286.256 67.358 C 283.112 75.285,274.444 75.730,274.788 67.947 C 275.330 55.686,286.051 49.745,300.875 53.491 M93.294 56.356 C 93.294 58.475,88.758 62.549,84.678 64.095 C 79.639 66.004,79.864 64.993,85.664 59.646 C 91.092 54.643,93.294 53.693,93.294 56.356 M314.615 58.801 C 317.422 61.337,320.448 66.014,322.916 71.629 C 325.052 76.490,327.264 80.466,327.831 80.466 C 328.399 80.466,328.863 81.254,328.863 82.216 C 328.863 84.627,326.023 84.411,317.493 81.352 C 312.467 79.549,310.204 78.128,310.204 76.771 C 310.204 74.587,315.456 69.971,317.942 69.971 C 321.098 69.971,319.432 66.849,314.372 63.283 C 308.515 59.154,305.458 54.810,308.410 54.810 C 309.393 54.810,312.185 56.606,314.615 58.801 M83.222 70.741 L 87.727 71.485 87.182 77.154 C 86.280 86.542,79.183 90.800,73.993 85.066 C 71.681 82.511,71.621 82.739,76.697 74.927 C 78.635 71.945,76.382 71.024,73.703 73.703 C 72.614 74.791,72.303 74.532,72.303 72.536 C 72.303 69.719,74.675 69.329,83.222 70.741 M66.839 75.413 C 67.474 78.754,67.195 79.227,63.902 80.375 C 58.987 82.088,58.793 81.501,62.391 75.802 C 65.854 70.315,65.870 70.314,66.839 75.413 M67.638 86.213 C 67.638 88.543,57.913 94.454,56.464 93.004 C 53.781 90.321,57.784 85.131,62.536 85.131 C 65.343 85.131,67.638 85.618,67.638 86.213 M298.542 86.344 C 298.542 93.755,268.735 124.781,261.616 124.781 C 258.503 124.781,261.728 121.067,267.287 118.250 C 272.596 115.559,277.878 108.393,275.963 106.478 C 274.076 104.591,263.925 111.930,261.122 117.208 C 257.281 124.445,247.230 133.450,247.230 129.656 C 247.230 129.130,249.127 126.483,251.446 123.774 C 256.524 117.842,258.169 111.858,256.111 106.812 L 254.651 103.235 251.613 108.469 C 249.942 111.347,247.769 116.829,246.784 120.649 C 244.735 128.598,242.097 132.635,237.004 135.618 C 231.900 138.607,231.607 136.611,236.172 129.964 C 239.227 125.515,240.315 122.495,240.935 116.744 L 241.738 109.289 237.990 111.496 C 232.050 114.993,229.738 119.792,229.738 128.624 C 229.738 140.507,220.276 146.771,219.460 135.429 C 217.984 114.893,249.824 89.542,268.064 96.731 C 275.079 99.496,280.908 98.379,283.988 93.679 L 285.999 90.609 274.195 91.422 C 266.750 91.935,262.391 91.815,262.391 91.098 C 262.391 90.051,265.616 89.187,279.883 86.409 C 287.443 84.937,298.542 84.898,298.542 86.344 M358.017 99.242 C 358.017 101.623,357.897 101.647,355.102 99.816 C 350.748 96.963,351.167 101.904,355.733 107.245 C 360.009 112.248,360.262 114.521,356.118 110.699 C 351.864 106.776,349.849 101.444,349.886 94.207 L 349.917 88.047 353.967 92.403 C 356.195 94.799,358.017 97.876,358.017 99.242 M104.787 96.122 C 107.850 97.707,110.831 102.297,110.748 105.303 C 110.727 106.074,109.787 105.602,108.659 104.253 C 105.166 100.074,96.793 97.125,96.793 100.073 C 96.793 101.930,103.898 107.789,107.603 108.986 C 112.473 110.561,118.331 120.616,115.452 122.460 C 107.712 127.415,98.019 121.190,97.975 111.236 C 97.960 107.680,94.185 101.458,92.044 101.458 C 88.376 101.458,91.891 115.097,96.674 119.425 C 100.070 122.499,99.755 124.024,95.918 123.075 C 91.530 121.991,86.693 117.138,85.863 112.987 C 85.054 108.946,79.921 103.790,76.705 103.790 C 74.771 103.790,74.566 104.330,75.266 107.580 C 76.739 114.420,78.935 117.203,85.030 119.958 C 90.974 122.644,92.319 124.334,89.403 125.453 C 87.041 126.359,63.704 116.964,60.911 113.982 C 55.441 108.142,54.518 100.788,59.040 99.069 C 67.959 95.678,75.796 95.747,67.594 99.144 C 63.565 100.812,61.808 103.449,61.808 107.822 C 61.808 111.965,66.524 109.006,70.121 102.606 C 73.865 95.944,76.808 94.893,92.478 94.619 C 98.355 94.517,102.711 95.049,104.787 96.122 M361.055 127.964 C 360.745 128.273,358.104 127.615,355.186 126.501 C 346.571 123.211,342.183 130.571,347.443 139.487 C 351.795 146.862,347.934 146.148,337.260 137.602 C 328.820 130.845,329.322 129.985,345.782 122.993 L 359.767 117.053 360.692 122.227 C 361.202 125.072,361.365 127.654,361.055 127.964 M51.661 119.702 C 58.548 123.241,68.805 130.685,68.762 132.113 C 68.703 134.063,54.243 145.097,51.099 145.591 C 48.758 145.958,48.855 145.639,52.261 141.760 C 60.303 132.601,54.103 120.081,45.052 127.201 C 42.133 129.497,41.942 129.512,41.301 127.492 C 38.291 117.998,34.685 117.815,35.798 127.213 C 36.171 130.365,36.010 132.952,35.439 132.961 C 34.869 132.969,33.222 133.293,31.778 133.680 C 29.425 134.310,29.155 133.964,29.155 130.322 C 29.155 120.611,41.810 114.640,51.661 119.702 M365.276 135.169 C 371.150 137.149,371.510 138.395,367.879 144.167 C 364.785 149.084,358.320 145.862,360.385 140.433 C 362.186 135.695,360.042 134.454,356.554 138.215 L 353.651 141.345 351.753 138.635 C 347.558 132.645,349.594 128.770,355.542 131.425 C 357.865 132.462,362.246 134.147,365.276 135.169 M51.312 133.727 C 51.312 136.692,48.467 141.108,46.557 141.108 C 44.624 141.108,42.775 132.732,44.470 131.658 C 47.972 129.439,51.312 130.450,51.312 133.727 M40.443 138.581 L 42.985 143.034 39.680 144.987 C 35.407 147.511,35.611 147.565,32.817 143.153 L 30.420 139.367 33.577 136.781 C 37.661 133.436,37.478 133.388,40.443 138.581 M115.258 135.165 C 115.044 135.744,110.298 140.206,104.711 145.080 C 96.863 151.926,94.238 154.992,93.167 158.566 C 91.615 163.746,92.894 172.665,95.303 173.462 C 97.186 174.085,103.246 161.106,105.187 152.293 C 106.316 147.172,107.524 144.795,109.893 143.041 C 114.282 139.792,115.225 141.404,111.515 145.813 C 107.665 150.389,106.991 157.185,109.858 162.541 C 111.919 166.392,116.498 156.356,116.565 147.840 C 116.652 136.833,123.349 134.557,138.192 140.491 C 151.743 145.908,152.101 147.431,140.209 149.058 C 130.574 150.375,124.781 156.134,124.781 164.394 C 124.781 167.896,135.249 161.998,140.755 155.394 C 145.689 149.476,152.599 148.496,158.712 152.849 C 164.111 156.693,163.176 158.618,156.308 157.805 C 148.547 156.886,143.915 158.930,141.055 164.535 C 139.811 166.974,139.253 169.253,139.815 169.601 C 141.610 170.710,151.811 166.998,154.969 164.086 C 160.870 158.645,161.757 158.898,171.489 168.801 C 185.975 183.542,189.284 193.354,186.051 211.983 C 183.338 227.622,181.224 233.512,175.570 241.193 C 172.730 245.051,169.372 250.218,168.108 252.675 C 157.573 273.162,130.078 285.626,104.047 281.715 C 92.857 280.034,87.442 279.840,74.175 280.647 C 53.101 281.929,52.679 282.448,63.792 293.408 C 71.942 301.446,78.047 312.708,76.475 316.804 C 75.605 319.071,71.397 318.723,70.702 316.327 C 70.376 315.204,69.540 312.079,68.843 309.382 C 67.290 303.368,63.151 298.280,56.996 294.821 C 53.322 292.756,52.482 291.704,53.015 289.834 C 55.576 280.865,55.077 268.804,52.029 265.977 C 49.704 263.822,48.979 262.021,48.975 258.397 C 48.973 255.574,47.949 251.987,46.455 249.563 C 44.688 246.695,44.017 243.916,44.199 240.216 C 44.407 236.006,43.781 234.015,41.076 230.281 L 37.693 225.612 39.932 219.220 C 42.916 210.701,42.916 197.462,39.932 188.943 L 37.693 182.552 41.115 177.865 C 44.100 173.775,44.455 172.472,43.897 167.635 L 43.258 162.092 49.648 157.268 C 57.482 151.353,58.251 151.888,54.305 160.507 C 50.704 168.373,51.060 171.996,55.947 177.228 C 62.566 184.313,63.691 181.392,60.561 165.249 C 57.943 151.750,61.261 145.643,74.919 138.818 C 88.393 132.085,94.118 134.587,82.810 142.266 C 73.738 148.427,68.219 161.770,73.415 164.981 C 75.136 166.045,83.761 154.360,85.200 149.014 C 87.285 141.274,91.398 138.125,101.515 136.525 C 106.294 135.769,110.991 134.978,111.953 134.766 C 115.196 134.053,115.648 134.107,115.258 135.165 M318.624 137.893 C 326.536 141.515,328.537 144.320,329.800 153.556 C 330.750 160.499,338.289 172.204,340.816 170.659 C 344.296 168.532,341.529 158.555,335.310 150.807 C 328.694 142.563,328.513 140.827,334.599 143.974 C 345.730 149.731,350.711 157.415,348.022 164.682 C 343.341 177.329,342.606 187.815,346.585 185.172 C 351.832 181.689,353.780 175.656,352.562 166.660 C 351.301 157.343,351.461 156.905,355.231 159.375 C 357.738 161.018,357.940 161.775,357.320 167.186 C 356.705 172.541,356.996 173.676,360.052 177.865 L 363.473 182.552 361.462 188.468 C 357.161 201.120,357.659 214.500,362.718 222.212 L 364.886 225.516 360.868 229.963 C 356.835 234.427,355.295 241.466,357.988 243.131 C 358.625 243.524,357.560 245.990,355.565 248.739 C 352.734 252.640,352.093 254.567,352.431 258.149 C 352.793 261.979,352.282 263.228,349.023 266.487 C 345.770 269.740,345.190 271.156,345.190 275.834 L 345.190 281.348 325.656 280.529 C 312.321 279.969,304.272 280.134,300.292 281.048 C 284.905 284.581,269.071 281.888,257.565 273.782 C 248.497 267.392,227.893 248.644,226.443 245.464 C 221.599 234.831,222.392 214.271,228.204 199.821 C 231.512 191.597,231.961 186.809,230.380 176.606 C 227.595 158.640,243.477 150.328,256.581 162.893 C 260.381 166.536,265.159 170.574,267.199 171.866 L 270.908 174.214 270.263 168.486 C 269.474 161.493,265.033 156.920,257.851 155.706 C 251.930 154.706,250.844 153.199,254.758 151.415 C 257.261 150.275,258.660 150.469,263.278 152.595 C 268.555 155.024,279.967 157.740,280.914 156.792 C 282.130 155.577,277.892 148.734,274.729 146.805 C 270.019 143.933,267.836 144.029,256.511 147.607 C 239.921 152.848,245.438 147.592,263.326 141.115 C 282.196 134.282,292.711 136.786,292.711 148.112 C 292.711 162.543,295.868 169.294,299.686 163.031 C 302.965 157.654,302.627 152.984,298.487 146.457 C 294.222 139.731,294.409 138.438,299.348 140.528 C 302.316 141.785,303.232 143.006,303.875 146.562 C 304.939 152.451,306.098 154.536,312.329 161.763 C 318.503 168.924,319.977 168.632,319.293 160.384 C 318.621 152.282,315.767 148.588,304.421 141.139 C 299.263 137.753,295.044 134.718,295.044 134.393 C 295.044 132.568,312.723 135.191,318.624 137.893 M377.230 143.382 C 381.076 150.821,378.689 155.134,373.189 150.681 C 370.716 148.678,370.684 148.416,372.418 144.267 C 374.598 139.048,374.954 138.982,377.230 143.382 M29.040 144.780 C 30.772 149.749,30.741 149.871,27.350 151.416 C 22.972 153.411,22.157 153.115,22.157 149.531 C 22.157 142.410,27.040 139.041,29.040 144.780 M363.650 154.730 C 360.390 158.200,360.284 158.178,356.996 153.350 C 352.789 147.172,355.235 144.851,361.577 149.004 L 366.191 152.025 363.650 154.730 M46.785 148.397 C 47.105 151.770,46.360 153.503,43.480 156.086 L 40.432 158.819 38.916 156.086 C 36.675 152.045,36.971 150.700,40.525 148.772 C 44.494 146.619,46.605 146.492,46.785 148.397 M34.948 156.467 L 37.681 160.163 34.292 162.874 C 30.314 166.057,29.169 165.888,26.851 161.777 C 25.254 158.943,25.331 158.514,27.929 155.748 C 31.463 151.987,31.650 152.006,34.948 156.467 M373.012 155.817 C 375.109 157.285,375.531 158.371,374.938 160.773 C 373.788 165.432,372.737 165.888,368.404 163.607 C 366.219 162.457,364.262 161.434,364.054 161.333 C 363.846 161.232,364.516 159.527,365.542 157.543 C 367.651 153.464,369.157 153.116,373.012 155.817 M383.611 172.745 C 381.898 176.881,380.998 176.924,377.927 173.021 C 374.822 169.073,374.878 168.236,378.616 162.734 L 381.722 158.163 383.360 163.780 C 384.660 168.237,384.712 170.088,383.611 172.745 M23.136 163.903 C 24.986 167.963,24.836 170.279,22.560 172.794 C 19.930 175.701,17.531 175.476,17.311 172.303 C 16.653 162.784,20.258 157.586,23.136 163.903 M367.253 167.687 L 371.152 170.942 368.274 174.288 C 364.135 179.100,359.274 174.370,361.057 167.266 C 361.958 163.677,362.493 163.713,367.253 167.687 M40.219 167.886 C 42.001 173.499,35.863 178.842,33.309 173.901 C 30.960 169.358,30.936 169.470,34.694 167.431 C 38.908 165.145,39.361 165.182,40.219 167.886 M30.202 177.422 C 31.638 179.969,31.584 180.692,29.740 183.506 L 27.648 186.699 24.394 183.581 L 21.139 180.463 23.631 177.093 C 26.474 173.247,27.887 173.318,30.202 177.422 M376.417 175.576 C 379.551 177.772,379.682 179.669,376.932 183.064 C 373.512 187.287,368.567 182.760,370.776 177.428 C 372.517 173.224,372.885 173.103,376.417 175.576 M20.991 187.113 C 20.991 188.609,19.953 192.120,18.685 194.916 C 15.455 202.035,15.730 207.376,19.718 214.958 C 22.929 221.060,23.001 221.505,21.074 223.249 C 15.087 228.667,8.862 205.688,13.006 193.468 C 15.982 184.696,20.991 180.709,20.991 187.113 M386.430 189.942 C 391.433 201.091,389.345 220.264,382.678 224.384 C 379.632 226.267,377.466 219.506,380.059 216.209 C 385.554 209.223,385.782 200.569,380.705 191.734 C 378.151 187.290,378.097 186.835,379.903 185.028 C 382.739 182.193,383.061 182.435,386.430 189.942 M371.194 186.608 C 372.652 188.689,372.525 189.583,370.094 194.386 C 366.736 201.019,366.636 205.684,369.679 213.690 C 372.567 221.290,372.586 220.938,369.205 222.479 C 366.487 223.717,366.337 223.528,364.402 216.379 C 360.185 200.800,365.332 178.239,371.194 186.608 M36.823 191.968 C 40.578 204.884,36.563 227.168,31.409 222.015 C 29.207 219.812,29.208 219.691,31.497 213.668 C 34.420 205.975,34.417 202.177,31.482 194.473 C 29.295 188.734,29.272 188.244,31.121 186.880 C 34.269 184.560,34.809 185.042,36.823 191.968 M380.067 200.148 C 381.086 203.838,379.358 213.426,376.963 217.371 C 373.953 222.328,370.752 202.213,373.360 194.732 L 374.708 190.865 376.829 193.485 C 377.996 194.926,379.453 197.924,380.067 200.148 M27.390 196.644 C 32.028 207.745,26.945 221.403,22.126 210.787 C 19.369 204.713,21.293 192.420,25.000 192.420 C 25.344 192.420,26.419 194.321,27.390 196.644 M377.506 231.000 C 374.249 235.134,372.795 235.189,370.231 231.276 C 368.209 228.189,368.226 228.115,371.523 225.485 L 374.863 222.822 377.474 225.275 L 380.085 227.728 377.506 231.000 M29.552 225.607 C 31.860 227.356,31.455 230.843,28.677 233.148 C 25.770 235.561,21.346 230.696,23.049 226.959 C 24.599 223.556,26.362 223.190,29.552 225.607 M367.990 233.782 C 370.298 239.308,370.230 239.539,365.642 241.727 C 359.769 244.527,358.606 239.729,363.371 232.362 C 365.611 228.899,365.999 229.018,367.990 233.782 M38.816 234.291 C 42.652 240.786,40.180 244.495,34.497 240.771 C 31.016 238.490,30.786 237.088,33.302 233.496 C 35.670 230.115,36.412 230.222,38.816 234.291 M24.453 240.728 C 24.407 243.732,21.528 247.700,20.055 246.789 C 17.589 245.265,16.199 239.555,17.476 236.196 L 18.730 232.897 21.610 235.602 C 23.194 237.090,24.473 239.397,24.453 240.728 M384.109 236.871 C 385.694 244.796,380.189 249.784,377.071 243.247 C 375.128 239.171,375.144 239.025,377.834 236.161 C 381.484 232.275,383.229 232.473,384.109 236.871 M377.613 250.144 C 377.419 250.318,375.446 251.551,373.228 252.886 L 369.197 255.311 366.057 251.562 L 362.916 247.813 366.589 244.683 L 370.262 241.552 374.114 245.690 C 376.233 247.966,377.807 249.970,377.613 250.144 M32.765 244.566 C 36.381 246.703,36.872 248.370,34.944 251.972 C 31.814 257.822,23.624 252.624,26.493 246.608 C 28.740 241.896,28.420 242.000,32.765 244.566 M45.096 256.354 C 46.118 260.423,43.978 261.822,40.358 259.450 C 36.811 257.126,36.608 255.759,39.251 251.986 C 41.429 248.877,43.633 250.524,45.096 256.354 M362.495 252.533 C 364.440 256.802,364.241 257.463,360.408 259.445 C 355.196 262.140,354.557 261.772,355.900 256.851 C 357.977 249.243,360.302 247.720,362.495 252.533 M27.446 257.277 C 30.860 259.513,30.988 260.873,28.135 264.583 L 26.000 267.358 24.079 264.615 C 19.813 258.525,22.018 253.720,27.446 257.277 M379.009 257.838 C 379.009 260.429,375.557 267.055,374.207 267.055 C 371.584 267.055,370.832 259.411,373.261 257.434 C 376.630 254.693,379.009 254.860,379.009 257.838 M41.387 269.464 C 40.450 275.010,42.146 275.527,45.065 270.584 C 47.829 265.906,51.312 268.591,51.312 275.399 C 51.312 280.812,52.111 280.788,42.062 275.682 C 37.514 273.372,33.011 271.781,32.056 272.147 C 29.975 272.946,29.987 273.060,31.656 268.104 C 34.678 259.135,42.937 260.289,41.387 269.464 M368.465 265.487 C 371.169 270.069,370.748 270.990,365.291 272.444 C 359.622 273.954,356.527 267.231,361.199 263.556 C 365.160 260.440,365.549 260.544,368.465 265.487 M358.176 278.522 C 360.395 286.811,360.531 288.384,359.105 289.286 C 353.172 293.041,348.339 287.167,353.786 282.823 C 359.386 278.358,357.612 276.779,350.146 279.585 C 347.694 280.506,348.446 273.508,351.170 270.045 C 354.363 265.987,355.041 266.807,358.176 278.522 M34.681 276.557 C 38.608 278.984,39.660 284.927,36.688 287.899 C 35.210 289.377,29.155 281.044,29.155 277.533 C 29.155 273.381,29.456 273.328,34.681 276.557 M372.490 275.950 C 373.689 279.074,366.552 288.976,364.642 286.839 C 361.894 283.765,362.892 277.869,366.460 276.094 C 371.316 273.677,371.615 273.670,372.490 275.950 M180.758 280.524 C 180.758 285.935,177.088 289.286,164.104 295.732 C 141.096 307.152,135.690 314.050,138.183 328.805 C 139.078 334.104,146.864 347.631,149.584 348.611 C 151.187 349.189,151.132 349.620,149.137 352.074 L 146.858 354.878 143.321 351.491 C 129.188 337.960,127.235 314.788,139.089 301.275 C 147.598 291.574,180.758 275.061,180.758 280.524 M233.011 282.888 C 269.681 297.975,279.591 318.791,262.413 344.647 C 259.871 348.473,257.777 352.522,257.759 353.644 C 257.718 356.147,256.169 356.275,254.227 353.936 C 253.429 352.974,252.084 352.187,251.238 352.187 C 248.632 352.187,248.068 354.556,250.132 356.837 C 251.997 358.897,251.870 359.212,247.623 363.028 C 234.828 374.525,225.536 380.744,224.263 378.665 C 223.746 377.821,221.305 375.616,218.838 373.764 C 214.903 370.811,214.622 370.297,216.546 369.586 C 217.753 369.139,219.462 367.904,220.345 366.840 C 224.342 362.024,228.453 360.064,230.424 362.036 C 234.085 365.697,251.401 352.307,258.673 340.193 C 269.350 322.405,262.979 307.448,240.347 297.174 C 225.843 290.590,225.258 290.253,223.384 287.392 C 217.412 278.277,219.467 277.316,233.011 282.888 M79.738 288.065 C 86.103 288.096,87.126 289.641,83.573 293.863 C 79.304 298.936,79.646 307.872,84.109 307.872 C 86.303 307.872,92.041 301.593,92.736 298.432 C 93.716 293.966,95.632 293.218,100.128 295.542 C 105.205 298.168,108.327 297.865,109.557 294.628 C 110.720 291.570,115.114 290.414,125.656 290.392 C 132.140 290.378,132.675 290.848,130.080 294.272 C 127.963 297.066,121.591 298.480,110.962 298.514 C 100.530 298.548,94.461 302.967,94.461 310.528 C 94.461 318.297,103.818 319.066,109.558 311.768 C 115.042 304.797,111.817 301.703,105.594 307.963 C 99.003 314.593,95.916 312.899,101.904 305.938 C 107.534 299.393,124.839 302.721,123.061 310.007 C 121.155 317.822,111.124 321.197,93.294 320.022 C 82.948 319.340,82.340 319.421,84.092 321.248 C 86.861 324.133,93.542 325.305,107.399 325.337 C 121.559 325.368,120.786 324.910,127.653 337.351 C 130.053 341.699,134.282 348.333,137.050 352.094 L 142.084 358.932 139.124 368.679 C 135.501 380.605,135.984 380.122,131.746 376.062 L 128.239 372.702 131.086 370.974 C 135.488 368.304,138.483 353.353,134.616 353.353 C 128.687 353.353,122.449 360.034,122.449 366.384 C 122.449 372.659,121.334 373.201,113.217 370.873 C 103.226 368.008,101.450 362.176,109.302 358.017 C 116.545 354.182,121.623 346.954,121.762 340.281 L 121.866 335.277 117.631 335.398 C 107.466 335.688,97.959 344.301,97.959 353.220 C 97.959 357.363,97.003 357.614,91.379 354.945 C 84.165 351.522,83.131 347.218,88.645 343.568 C 95.647 338.935,96.901 329.793,90.635 329.074 C 86.543 328.604,79.300 335.350,79.300 339.631 C 79.300 344.197,78.041 344.227,74.478 339.744 C 70.378 334.584,70.224 332.362,73.969 332.362 C 83.678 332.362,82.828 310.764,72.480 294.524 C 67.897 287.331,67.893 286.407,72.449 287.318 C 74.453 287.719,77.733 288.055,79.738 288.065 M331.618 287.787 C 331.926 288.286,330.409 291.500,328.246 294.930 C 326.083 298.360,323.371 304.825,322.219 309.297 C 319.562 319.614,318.735 320.067,302.624 320.029 C 287.308 319.993,281.842 318.187,279.387 312.350 C 277.367 307.546,277.750 306.699,283.402 303.464 C 289.218 300.135,289.306 298.543,283.673 298.540 C 278.195 298.538,271.277 295.172,270.729 292.242 C 270.339 290.154,270.888 290.072,280.048 290.835 C 291.820 291.817,292.197 292.130,290.438 299.461 C 288.107 309.180,293.841 317.201,303.121 317.201 C 308.248 317.201,308.499 308.410,303.528 302.918 C 299.249 298.189,297.210 300.439,300.378 306.396 C 303.405 312.091,302.825 313.662,298.541 311.370 C 292.868 308.333,293.916 301.165,300.746 296.302 C 305.476 292.933,306.292 293.190,308.794 298.834 C 312.870 308.027,319.800 309.894,320.465 301.979 C 320.830 297.639,316.899 290.874,314.775 292.186 C 314.185 292.551,313.703 292.310,313.703 291.651 C 313.703 288.368,329.827 284.890,331.618 287.787 M348.223 289.850 C 348.633 291.484,348.774 292.927,348.537 293.057 C 348.299 293.188,346.006 294.407,343.440 295.768 C 334.937 300.276,330.556 309.906,331.441 322.145 C 331.971 329.463,330.573 330.772,326.331 326.933 C 323.469 324.343,323.639 322.110,326.731 321.655 C 330.382 321.118,330.643 318.774,327.149 317.897 C 321.703 316.531,326.914 303.877,337.160 293.586 C 344.490 286.225,347.092 285.346,348.223 289.850 M207.281 298.268 C 216.749 311.066,219.261 325.604,214.632 340.818 L 213.301 345.192 209.915 343.442 C 202.795 339.759,200.794 341.707,206.695 346.576 L 210.496 349.712 205.886 354.448 C 199.759 360.742,199.398 360.622,192.698 350.070 C 180.582 330.986,181.473 313.634,195.445 296.583 C 200.720 290.145,201.336 290.233,207.281 298.268 M89.796 295.367 C 89.796 297.337,86.461 302.041,85.065 302.041 C 83.402 302.041,83.744 299.376,85.780 296.469 C 87.785 293.607,89.796 293.055,89.796 295.367 M317.201 300.421 C 317.201 302.645,314.117 302.470,313.244 300.196 C 311.447 295.513,312.427 293.070,314.908 296.048 C 316.169 297.562,317.201 299.530,317.201 300.421 M58.958 301.166 C 62.819 304.724,66.915 313.210,65.711 315.157 C 62.916 319.680,51.312 307.746,51.312 300.349 C 51.312 296.264,53.942 296.545,58.958 301.166 M197.893 306.457 C 192.182 312.767,190.624 326.486,194.834 333.392 C 198.043 338.655,199.491 336.713,197.925 329.245 C 195.872 319.447,199.575 309.753,202.728 316.673 C 206.245 324.392,202.674 336.909,195.923 340.522 C 192.624 342.288,190.594 346.356,193.012 346.356 C 196.802 346.356,206.327 335.847,208.174 329.628 C 211.753 317.578,203.882 299.839,197.893 306.457 M169.134 313.994 C 171.365 323.502,175.689 334.307,180.301 341.899 C 182.615 345.708,184.321 348.925,184.091 349.048 C 183.861 349.171,181.398 350.494,178.616 351.988 C 175.834 353.482,173.430 354.532,173.274 354.321 C 173.117 354.109,171.105 351.422,168.803 348.351 C 164.858 343.087,164.712 342.583,166.267 339.604 C 169.754 332.919,165.996 317.230,160.673 316.247 C 154.806 315.164,152.027 330.013,156.403 339.055 C 158.874 344.159,157.825 347.314,153.599 347.485 C 151.915 347.553,144.606 330.739,144.606 326.797 C 144.606 312.301,166.104 301.080,169.134 313.994 M243.462 309.677 C 255.761 314.815,259.674 325.654,253.618 337.806 C 247.154 350.778,239.733 350.492,245.681 337.499 C 249.094 330.045,248.653 323.650,244.385 318.688 C 237.711 310.929,230.101 328.431,235.025 340.216 L 236.814 344.497 231.649 349.661 L 226.484 354.826 221.753 351.023 L 217.021 347.221 219.858 343.501 C 223.609 338.584,228.878 326.613,231.434 317.201 C 234.346 306.481,234.934 306.114,243.462 309.677 M76.968 324.157 C 76.968 327.100,73.184 329.277,71.316 327.409 C 68.630 324.724,69.741 321.866,73.469 321.866 C 76.170 321.866,76.968 322.389,76.968 324.157 M162.841 332.121 C 163.686 340.200,162.221 341.733,159.214 335.918 C 157.113 331.856,156.953 328.443,158.709 325.163 C 160.608 321.614,161.985 323.933,162.841 332.121 M243.024 324.877 C 244.245 328.058,243.802 332.342,241.865 336.088 C 239.590 340.486,237.946 338.780,237.919 331.993 C 237.891 325.063,241.282 320.336,243.024 324.877 M307.483 329.640 C 307.055 330.068,306.706 331.668,306.706 333.197 C 306.706 346.112,327.024 350.823,332.678 339.218 C 335.280 333.876,332.766 333.302,327.933 338.135 C 324.616 341.453,319.627 343.204,321.326 340.454 C 324.329 335.596,311.527 325.596,307.483 329.640 M89.796 335.217 C 89.796 336.146,88.484 338.322,86.880 340.052 L 83.965 343.198 83.965 339.587 C 83.965 337.378,84.758 335.514,86.006 334.787 C 88.836 333.139,89.796 333.248,89.796 335.217 M316.035 337.026 C 318.010 339.800,318.165 340.525,316.781 340.525 C 314.566 340.525,311.370 337.376,311.370 335.194 C 311.370 332.492,313.364 333.275,316.035 337.026 M279.105 336.531 C 278.155 339.007,280.439 346.274,283.665 351.040 C 291.344 362.383,311.940 363.625,318.337 353.131 C 322.147 346.883,319.552 344.749,315.071 350.446 C 309.957 356.947,303.207 358.525,303.207 353.220 C 303.207 342.084,282.482 327.732,279.105 336.531 M116.237 341.214 C 117.352 344.120,113.535 350.808,109.345 353.292 C 107.252 354.532,104.883 356.123,104.082 356.828 C 102.950 357.823,102.624 357.224,102.624 354.154 C 102.624 346.123,113.979 335.329,116.237 341.214 M291.682 341.374 C 294.891 343.270,299.708 351.106,299.708 354.430 C 299.708 358.468,289.381 352.645,286.176 346.799 C 282.663 340.392,285.420 337.675,291.682 341.374 M164.688 349.964 C 166.150 351.949,168.624 354.244,170.185 355.065 L 173.024 356.558 170.441 357.378 C 165.736 358.871,157.313 352.920,158.996 349.292 C 160.747 345.518,161.475 345.604,164.688 349.964 M241.966 349.115 C 244.011 350.610,243.836 350.930,239.098 354.362 C 230.815 360.363,228.785 359.351,234.598 352.118 C 238.736 346.968,238.925 346.891,241.966 349.115 M192.300 357.312 L 197.330 362.437 194.802 364.965 C 192.290 367.476,192.087 369.763,194.309 370.504 C 194.948 370.716,199.602 366.645,204.651 361.456 L 213.832 352.022 218.578 354.083 C 221.188 355.216,223.536 356.297,223.797 356.484 C 224.057 356.672,221.634 359.612,218.413 363.018 L 212.556 369.211 208.691 366.562 C 203.166 362.776,200.245 365.066,204.687 369.702 L 207.715 372.863 199.980 379.653 L 192.246 386.443 187.068 385.058 C 176.406 382.207,173.633 384.292,182.734 388.318 C 192.647 392.703,192.357 392.776,202.151 383.447 L 211.118 374.906 216.346 377.563 C 222.710 380.797,222.704 380.717,216.794 383.733 C 213.237 385.547,210.879 385.980,207.584 385.423 C 202.087 384.495,200.595 386.362,204.691 389.046 C 208.909 391.810,212.831 391.397,221.552 387.273 C 228.314 384.075,229.286 383.888,230.877 385.480 C 233.054 387.657,232.214 388.325,222.741 391.944 C 207.304 397.842,189.023 397.454,176.177 390.957 C 167.870 386.755,168.008 386.292,179.323 380.403 L 188.967 375.384 192.331 377.780 C 194.182 379.097,196.270 380.175,196.973 380.175 C 200.263 380.175,197.424 376.145,188.295 367.857 L 178.339 358.818 181.516 355.503 C 185.682 351.154,186.369 351.269,192.300 357.312 M159.739 357.992 C 165.897 363.676,168.098 364.446,172.143 362.327 C 175.524 360.555,174.963 360.143,184.017 371.061 C 185.480 372.825,185.033 373.336,179.643 376.068 L 173.639 379.110 167.577 374.289 C 164.244 371.637,158.676 366.827,155.204 363.599 L 148.892 357.730 151.705 355.568 C 153.253 354.378,154.563 353.393,154.616 353.379 C 154.670 353.364,156.975 355.440,159.739 357.992 M131.771 361.808 C 131.767 363.251,130.784 365.916,129.588 367.731 L 127.413 371.030 126.627 367.899 C 126.116 365.865,126.482 363.789,127.670 361.976 C 129.971 358.465,131.781 358.391,131.771 361.808 M156.268 385.020 C 156.268 386.435,151.885 386.239,150.986 384.784 C 150.571 384.112,150.550 382.728,150.941 381.710 C 151.686 379.769,156.268 382.617,156.268 385.020 " stroke="none" fill="#A01F15" fill-rule="evenodd"></path></g></svg>